<svg xmlns="http://www.w3.org/2000/svg" width="257.262" height="53.642" viewBox="0 0 257.262 53.642">
  <g id="simple_logo" transform="translate(-903.814 -319.762)">
    <path id="합치기_547" data-name="합치기 547" d="M85.654,13.1C85.622,5.412,90.671,1.056,96.94,1.089c5.512-.033,9.735,3.3,10.23,7.986h-6.2c-.429-1.683-1.815-2.673-3.894-2.64-3.234-.033-5.148,2.409-5.148,6.6s1.782,6.633,5.148,6.666c2.9-.033,4.422-1.419,4.422-3.564H97.2V11.781h10.229v3.168c0,6.336-4.356,10.1-10.427,10.1C90.241,25.047,85.622,20.46,85.654,13.1Zm108.438,11.88c-6.039.032-9.966-2.607-10.032-8.316h5.874c.1,2.145,1.584,3.267,4.026,3.3,2.112-.032,3.235-.891,3.235-2.111,0-1.122-.958-1.782-3.564-2.376l-2.31-.528c-4.125-.858-6.666-2.9-6.666-6.534,0-4.389,3.894-7.359,9.373-7.326,5.61-.033,9.108,2.97,9.174,7.524h-5.94c-.1-1.584-1.122-2.508-3.234-2.508-2.013,0-2.938.792-2.97,1.914-.033,1.188,1.056,1.848,3.234,2.31l1.914.4c5.016,1.089,7.259,3.531,7.259,7.128,0,4.526-3.454,7.129-9.264,7.128Zm-29.238-.265V1.353h16.632V6.369H170.992v4.224h9.636v4.95h-9.636v4.224h10.494v4.95Zm-9.174,0V10.989h-.2l-5.28,13.53h-3.7l-5.346-13.6h-.132V24.717h-6.006V1.353h7.59l5.61,13.6h.265l5.544-13.6h7.655V24.717Zm-29.568,0-1.386-4.554h-7.854l-1.386,4.554h-6.6l7.722-23.364h8.382l7.722,23.364Zm-7.821-9.174h5.016L120.9,7.623h-.2ZM64.551,24.717v-9.57L56.168,1.353h3.3l6.4,10.89h.33l6.4-10.89h3.3L67.521,15.147v9.57Zm-10.23,0-2.31-6.534H42.573l-2.31,6.534H37.227L45.741,1.353h3.036l8.58,23.364ZM43.5,15.609h7.591L47.39,5.115h-.2ZM20.165,24.717V1.353h2.9v20.79H33.893v2.574Zm-19.932,0V1.353h7.92c5.478.033,7.953,3.3,7.987,7.458-.033,4.125-2.508,7.425-7.92,7.458H3.137v8.447ZM3.137,13.7h4.95c3.7-.033,5.148-2.112,5.148-4.884,0-2.805-1.452-4.851-5.214-4.884H3.137Z" transform="translate(957.612 337.741)" fill="#fff"/>
    <g id="그룹_60959" data-name="그룹 60959" transform="translate(903.814 319.762)">
      <path id="빼기_273" data-name="빼기 273" d="M19.487,39.372a19.634,19.634,0,0,1-2.405-.147,17.475,17.475,0,0,1-2.217-.418l-.2-.052.067-.226a19.5,19.5,0,0,1-9.024-5.1c-.078-.078-.151-.152-.223-.225l-.169.177-.144-.146a17.322,17.322,0,0,1-1.472-1.7,19.618,19.618,0,0,1-2.4-4.149,17.256,17.256,0,0,1-.745-2.121l-.055-.2L.735,25c-.13-.459-.245-.926-.339-1.387a19.514,19.514,0,0,1,0-7.822c.1-.475.215-.954.349-1.422l-.251-.061.055-.2a17.263,17.263,0,0,1,.745-2.121A19.637,19.637,0,0,1,3.7,7.841a17.39,17.39,0,0,1,1.472-1.7l.144-.146.188.2.2-.206.128-.127a10.579,10.579,0,0,0,1.121.056h.061a18.368,18.368,0,0,0,2.869-.265A32.1,32.1,0,0,0,14,4.659l.061-.019c.7-.215,1.375-.449,2-.694l.173.587H22.74L23.809.9a17.388,17.388,0,0,0-2.423-.41c.049-.073.093-.147.132-.218.029-.053.055-.107.079-.16l.295.034a17.466,17.466,0,0,1,2.216.418l.2.052-.077.261a19.489,19.489,0,0,1,9.034,5.105c.068.068.135.136.2.206l.188-.2.144.146a17.364,17.364,0,0,1,1.472,1.7,19.643,19.643,0,0,1,2.405,4.149,17.289,17.289,0,0,1,.745,2.121l.055.2-.252.061c.134.468.251.946.349,1.422a19.514,19.514,0,0,1,0,7.822c-.1.465-.21.932-.339,1.387l.242.059-.055.2a17.251,17.251,0,0,1-.745,2.121,19.634,19.634,0,0,1-2.405,4.149,17.4,17.4,0,0,1-1.472,1.7l-.144.146-.17-.177c-.076.079-.151.155-.223.225a19.45,19.45,0,0,1-9.024,5.1l.066.226-.2.052a17.471,17.471,0,0,1-2.216.418A19.641,19.641,0,0,1,19.487,39.372ZM16.233,34.84l-1.068,3.632a18.868,18.868,0,0,0,8.644,0L22.74,34.84H16.233ZM27.3,34.98a.491.491,0,1,0,.429.253A.492.492,0,0,0,27.3,34.98Zm1.823-1.011a.491.491,0,1,0,.43.253A.49.49,0,0,0,29.122,33.969Zm-18-.244a.49.49,0,1,0,.347.143A.489.489,0,0,0,11.122,33.725Zm16.544-.094a.491.491,0,1,0,.238.92.491.491,0,0,0,.191-.667A.492.492,0,0,0,27.667,33.631Zm-1.319-.367a.491.491,0,0,0-.471.356.491.491,0,0,0,.472.626.491.491,0,0,0,0-.981Zm1.823-1.011a.49.49,0,1,0,.43.253A.492.492,0,0,0,28.171,32.253ZM19.465,6.509A13.171,13.171,0,1,0,32.736,19.68,13.236,13.236,0,0,0,19.465,6.509ZM34.289,24.457l-3.253,5.611,2.624,2.738a18.7,18.7,0,0,0,4.322-7.454l-3.694-.895Zm-29.605,0L.99,25.352a18.706,18.706,0,0,0,4.322,7.454l2.625-2.738L4.684,24.457Zm32.292-3.985a.485.485,0,1,0,.485.485A.486.486,0,0,0,36.975,20.473Zm-1.941,0a.485.485,0,1,0,.485.485A.486.486,0,0,0,35.035,20.473ZM3.886,20.356a.493.493,0,0,0-.445.283.49.49,0,1,0,.445-.283Zm-1.1-1.1a.491.491,0,0,0-.207.935.487.487,0,0,0,.207.046.493.493,0,0,0,.445-.284.49.49,0,0,0-.445-.7Zm34.194-.914a.485.485,0,1,0,.485.485A.486.486,0,0,0,36.975,18.338Zm-1.941,0a.485.485,0,1,0,.485.485A.486.486,0,0,0,35.035,18.338ZM1.8,18.27a.491.491,0,0,0-.207.935A.49.49,0,1,0,1.8,18.27Zm3.511-11.7h0A18.7,18.7,0,0,0,.99,14.02l3.694.895L7.937,9.3,5.312,6.566Zm28.349,0h0L31.037,9.3l3.253,5.611,3.694-.895a18.7,18.7,0,0,0-4.322-7.454ZM10.878,6.25a.493.493,0,0,0-.425.245.491.491,0,0,0,.424.736.492.492,0,0,0,.425-.245.49.49,0,0,0-.425-.736Zm17.051-.04a.487.487,0,0,0-.471.613.488.488,0,0,0,.47.361.487.487,0,0,0,0-.974Zm-1.519-.877a.487.487,0,1,0,.421.731.487.487,0,0,0-.178-.665A.489.489,0,0,0,26.409,5.333Zm2.1-.135a.489.489,0,0,0-.422.244.487.487,0,0,0,.421.731.489.489,0,0,0,.423-.244.488.488,0,0,0-.178-.665A.488.488,0,0,0,28.513,5.2Zm-1.519-.877a.489.489,0,0,0-.422.244.487.487,0,0,0,.421.731.487.487,0,1,0,0-.974Zm2.1-.136a.487.487,0,1,0,.421.731.487.487,0,0,0-.178-.665A.49.49,0,0,0,29.1,4.185Zm-1.519-.877a.487.487,0,0,0-.47.613.486.486,0,0,0,.47.361.487.487,0,1,0,0-.974ZM19.487,37.934a1.166,1.166,0,1,1,.827-.341A1.164,1.164,0,0,1,19.487,37.934Zm-.022-5.483a13.043,13.043,0,0,1-2.6-.26A12.851,12.851,0,0,1,7.6,24.65a12.632,12.632,0,0,1-.749-2.4,12.8,12.8,0,0,1,0-5.148,12.63,12.63,0,0,1,.749-2.4A12.776,12.776,0,0,1,8.79,12.54,12.875,12.875,0,0,1,16.87,7.167a13.1,13.1,0,0,1,5.19,0,12.889,12.889,0,0,1,8.079,5.373,12.722,12.722,0,0,1,1.936,9.713,12.6,12.6,0,0,1-.749,2.4,12.733,12.733,0,0,1-1.186,2.169,12.874,12.874,0,0,1-8.079,5.373A13.039,13.039,0,0,1,19.465,32.452Zm.022-23.594A10.848,10.848,0,1,0,30.4,19.7,10.89,10.89,0,0,0,19.487,8.857ZM34.42,29.349a1.171,1.171,0,0,1-.583-.156,1.162,1.162,0,0,1,.009-2.021,1.173,1.173,0,0,1,1.16,0A1.162,1.162,0,0,1,35,29.2,1.181,1.181,0,0,1,34.42,29.349Zm-29.868,0a1.18,1.18,0,0,1-.577-.151,1.166,1.166,0,0,1-.436-.431,1.162,1.162,0,0,1,.427-1.59,1.171,1.171,0,0,1,1.6.426,1.161,1.161,0,0,1-.428,1.59A1.171,1.171,0,0,1,4.552,29.349Zm29.87-17.171a1.18,1.18,0,0,1-.577-.151,1.165,1.165,0,0,1-.437-.431,1.161,1.161,0,0,1,.428-1.59,1.171,1.171,0,0,1,1.6.426,1.161,1.161,0,0,1-.428,1.59A1.17,1.17,0,0,1,34.423,12.178Zm-29.873,0a1.172,1.172,0,0,1-.583-.156A1.162,1.162,0,0,1,3.976,10a1.172,1.172,0,0,1,1.16.005,1.162,1.162,0,0,1-.008,2.021A1.181,1.181,0,0,1,4.55,12.178Zm2.4-6.665c-.254,0-.5-.008-.733-.024a19.639,19.639,0,0,1,2.2-1.761,23.869,23.869,0,0,0,4.573-.945,25.045,25.045,0,0,0,2.461-.893l.492,1.672c-.629.247-1.305.481-2.008.7l-.06.019a31.678,31.678,0,0,1-4.057.975,17.929,17.929,0,0,1-2.806.26Zm4.659-2.083a.491.491,0,1,0,.425.736.491.491,0,0,0-.179-.67A.494.494,0,0,0,11.613,3.429Zm7.873.163A1.17,1.17,0,0,1,18.4,2.871a12.307,12.307,0,0,0,1.916-1.258,1.164,1.164,0,0,1-.835,1.979ZM9.172,3.237h0A19.391,19.391,0,0,1,14.742.878L14.665.616l.2-.052A17.472,17.472,0,0,1,17.082.146c.339-.042.687-.075,1.034-.1-.242.159-.5.316-.769.469A17.27,17.27,0,0,0,15.165.9l.177.6a24.669,24.669,0,0,1-2.464.9A24.279,24.279,0,0,1,9.172,3.237Zm9.146-.774h0c0-.011,0-.024,0-.035a1.171,1.171,0,0,1,1.665-1.054,11.969,11.969,0,0,1-1.664,1.089ZM20.924.451h0C20.452.417,19.969.4,19.487.4c-.415,0-.833.013-1.24.039l.171-.112c.158-.105.31-.212.453-.317.2-.006.412-.009.616-.009.564,0,1.131.024,1.686.071l0,.005h0l0,.005a2.793,2.793,0,0,1-.243.369Z" transform="translate(1.435 14.27)" fill="#fff"/>
      <path id="패스_168282" data-name="패스 168282" d="M9.271,4.237H9.208a31.645,31.645,0,0,1-4.164-.253,17.96,17.96,0,0,1-2.759-.572A8.7,8.7,0,0,1,.732,2.8a1.9,1.9,0,0,1-.54-.367C.175,2.407.156,2.382.138,2.358v0C.019,2.2-.083,2.059.1,1.482A2.552,2.552,0,0,0,.227.941,1.183,1.183,0,0,0,.235.721L.123.009.132,0c.078.635,1.025,1.277,2.6,1.76A21.479,21.479,0,0,0,8.8,2.549a21.336,21.336,0,0,0,5.9-.763C16.234,1.328,17.232.718,17.44.114a1.889,1.889,0,0,0-.033.5,1.509,1.509,0,0,0,.188.617.629.629,0,0,1,.15.388.705.705,0,0,1-.058.366L17.678,2a1.444,1.444,0,0,1-.275.354,3.653,3.653,0,0,1-.914.623,10.487,10.487,0,0,1-2.671.855A23.673,23.673,0,0,1,9.271,4.237Z" transform="translate(5.27 17.187) rotate(-17)" fill="#fff"/>
      <path id="빼기_282" data-name="빼기 282" d="M6.922,15.779h0a11.7,11.7,0,0,1-1.49-.087,3.067,3.067,0,0,1-1.139-.3l-.247-.5-.567-1.146.2.187.5.312.371-.152.14-.575-.127-.845L4.2,11.786l-.5-.693-.5-.312-.371.152-.14.576-.014.611L.516,7.762a21.683,21.683,0,0,0,2.36,2.023c1.037.763,2.015,1.391,2.652,1.783.7.43,1.15.678,1.155.68h0l.448.246,2.3-8.787,6.437,5.661.317.279.26-.332a10.841,10.841,0,0,0,.784-1.2,15.032,15.032,0,0,0,.692-1.367,14.375,14.375,0,0,0,.654-1.781c.261-.889.458-1.647.6-2.319l.561,3.927-.163-.23-.438-.4-.392.082-.242.54-.026.853.2.938.366.771.438.4.392-.082h0l.21-.47.157,1.1.045.318a3.134,3.134,0,0,1-.781.914,13.232,13.232,0,0,1-1.906,1.4h0a20.2,20.2,0,0,1-3.919,1.849h0l-.019.007-.019.007h-.006l0,0-.013,0h0l-.012,0h-.01l-.006,0h0l-.005,0h-.015l-.013,0h-.011l-.005,0-.018.006-.012,0h0l-.005,0-.008,0h0l-.054.018-.011,0h-.007l-.015,0-.014,0-.009,0-.011,0-.017.006-.009,0-.013,0-.01,0-.012,0-.012,0-.011,0-.015.005-.022.007h0l-.012,0-.011,0-.024.008-.015,0-.014,0-.01,0-.011,0-.025.008-.021.007-.009,0-.009,0-.02.006-.013,0-.009,0-.01,0h0l-.014,0-.014,0-.01,0-.01,0-.015,0-.015,0-.01,0-.01,0-.019.006h0l-.012,0-.016,0-.009,0h0l-.014,0-.025.007-.025.008-.025.007-.013,0h0l-.016,0-.016,0h0l-.009,0-.009,0-.032.01-.01,0-.01,0-.031.009-.009,0-.009,0-.015,0-.016,0-.01,0-.01,0-.016,0-.011,0-.015,0-.006,0-.014,0-.007,0-.007,0-.007,0h0l-.01,0-.009,0-.013,0h0l-.012,0-.01,0h-.006l-.021.006-.005,0-.008,0-.013,0-.023.006h0l-.009,0-.009,0h0l-.014,0-.014,0-.017,0-.006,0L12.246,15l-.009,0-.014,0h0l-.054.015-.006,0h-.006l-.021.006-.015,0H12.11l-.02.005-.014,0-.007,0-.006,0h-.022l-.006,0h-.017l-.213.056h0a20.63,20.63,0,0,1-4.053.635C7.47,15.771,7.191,15.779,6.922,15.779Zm4.641-6.451-.968.3-.69.74-.228.986.3.968.74.69.986.228.014,0,.953-.292.69-.74.228-.986-.3-.968-.74-.69-.986-.228ZM6.686,11.793a38.383,38.383,0,0,1-3.573-2.33c-.087-.064-.177-.131-.267-.2L2.773,7.916c1.155.839,2.294,1.633,2.616,1.857l0,0,.5.33-.5-.33,0,0,0,0c-.223-.155-1.4-.971-2.613-1.854l-.052-.97c.108.077.215.153.319.225l.315.217.573.394V7.774c.643.426,1.228.789,1.739,1.08a9.463,9.463,0,0,0,.859.447h0l.483-1.867v0l.133-.516.666.478.274-.1-1.125,4.3c-.162.027-.326.053-.487.077l.217.125h0ZM5.97,10.155h0l.309.2-.019-.012-.289-.187Zm-.076-.049h0l.011.007.033.022Zm10.256-1.06h0c.048-.063.148-.2.287-.408-.138.208-.239.345-.287.408ZM15.9,8.862h0l-3.343-2.94c.213-.052.425-.1.632-.149l.021-.058.382.338.017.015.436.3.136-.352.753.666a6.809,6.809,0,0,0,.586-.824,14.4,14.4,0,0,0,.894-1.686l.162.53.4-.645L17,4.166l.3-.855.9,1.5-.005.017v0l-.006.021a13.948,13.948,0,0,1-.636,1.732,14.382,14.382,0,0,1-.673,1.33c-.134.234-.274.463-.417.679-.187.091-.379.181-.57.267Zm.082-1.646h0c-.072.1-.142.194-.207.275.066-.081.135-.174.207-.274Zm.855-1.7c-.062.141-.124.278-.184.408-.325.7-.584,1.146-.656,1.267a15.861,15.861,0,0,0,.84-1.674Zm.384-.939h0l-.055.142v0c.017-.045.034-.087.053-.139l.007-.018.01-.027.036-.1h0l0,.009,0,.012,0,.006,0,.005,0,.009,0,.008-.034.092ZM6.262,8.726h0c-.126-.067-.26-.14-.4-.219C5.29,8.181,4.62,7.76,3.872,7.257L3.7,5.667,6.393,7.629l.13.088L6.262,8.726ZM1.954,8.543c-.275-.235-.547-.479-.81-.728.26.246.532.491.81.728ZM6.629,7.306h0L3.212,4.815,3.44,6.962l-.022-.015L3.41,6.942l-.015-.011-.03-.02L3.34,6.894l-.008-.006-.009-.006-.047-.033-.008-.005c-.192-.133-.385-.271-.574-.411L2.542,3.609,6.794,6.665ZM.14,6.794l-.1-.111L.015,6.654l0,0L0,6.637H0l.014.015h0l.017.019.008.009.094.105.006.006h0ZM14.876,6.1h0l-.549-.486,0,0,.056-.138,1.129-3.12.537,1.011.156.294a14.375,14.375,0,0,1-1.022,1.988c-.1.161-.2.314-.3.454Zm-1.023-.35h0l-.5-.441.006-.017.5.441-.006.016Zm.152-.42h0l-.212-.187-.284-.251L15.32,0l1.391,2.322v0l0,.005v0h0v0l0,0c-.08.234-.168.477-.263.723h0l-.009.024h0v0h0v0l0,0V3.11h0v0l-.005.013-.011.027-.01.026-.959-1.806L14.005,5.333h0ZM16.7,3.745h0l-.055-.1c.047-.113.093-.228.137-.342l.053-.14,0-.006,0-.007,0-.011v0l0-.007h0c.042-.11.085-.226.128-.346l0-.007v0l.059.1-.007.021h0l-.333.859Z" transform="translate(1.512 1.948)" fill="#fff"/>
      <path id="빼기_281" data-name="빼기 281" d="M11.42,5.5h0l-.348-.567.011-.014.348.567L11.42,5.5Zm.268-.358h0l-.346-.564L14.505.427l.654-.143L15.7,2.258a17.62,17.62,0,0,1-1.073,1.5l-.007.009-.01.013-.389-2.008L11.689,5.143Zm-7.631-.27h0L1.518,1.491l-.41,2.12L.984,3.455.979,3.448C.637,3.014.308,2.567,0,2.119L.576,0,1.23.143,4.4,4.308l-.346.565Zm10.669-.462h0L14.7,4.3c.077-.094.155-.191.231-.287.337-.428.64-.843.9-1.233l.035.13-.575.782h0l-.57.725Z" transform="translate(2.836 5.78) rotate(-17)" fill="#fff"/>
      <path id="패스_168303" data-name="패스 168303" d="M10.616,1.949,5.776,9.795A37.649,37.649,0,0,1,2.89,6.365,19.854,19.854,0,0,1,.68,2.617L.252,1.68,0,.168H0C.006.179.252.661.71,1.441.249.655,0,.173,0,.168L1.058.387s.188.408.585,1.08A24.621,24.621,0,0,0,3.491,4.152c.739.939,1.438,1.761,2.019,2.376a9.566,9.566,0,0,0,.691.678h0L10.616,0,15,7.164a6.816,6.816,0,0,0,.8-.617,15.384,15.384,0,0,0,1.956-2.081c1.678-2.127,2.1-3.411,2.152-4.113H21.1l-.436.109h0L21.1.352l-.2,1.533a.054.054,0,0,1,0,.009s0,.006,0,.009,0,.007,0,.011a.074.074,0,0,0,0,.009s0,.007,0,.01l0,.019v.008l0,.012v.008s0,.008,0,.012a.019.019,0,0,1,0,.006c0,.01,0,.02,0,.029h0l0,.015v.005l0,.015v0c0,.017-.006.034-.01.051v0a15.027,15.027,0,0,1-2.2,4.245,13.66,13.66,0,0,1-3.2,3.43Zm4.893,6.271h0L10.611.084h0Zm1.36-1.281a14.451,14.451,0,0,1-1.02,1.039c-.133.1-.231.171-.287.208.056-.037.155-.106.288-.209h0a16.962,16.962,0,0,0,1.749-1.9C17.363,6.373,17.119,6.66,16.869,6.938ZM4.98,7.33c.387.47.624.75.708.848-.106-.124-.343-.4-.708-.848C4.957,7.3,3.2,5.071,1.99,3.4,3.17,5.033,4.875,7.2,4.98,7.33Zm12.891-1.6q-.133.175-.272.347c.147-.184.3-.379.451-.585Q17.961,5.614,17.87,5.732Zm.187-.248.021-.029ZM20.5,1.493h0ZM.716,1.451l0-.008Z" transform="translate(0 6.169) rotate(-17)" fill="#fff"/>
      <path id="black" d="M53.747,30.057a3.784,3.784,0,0,0-1.594.457l-.371-.36a4.645,4.645,0,0,0,1.3-2.685,2.826,2.826,0,0,1-1.922.757,3.024,3.024,0,0,1-3.1-2.908c0-1.775,1.054-2.044,2.819-3.881a32.906,32.906,0,0,0,2.872-3.449,32.905,32.905,0,0,0,2.872,3.449c1.765,1.837,2.819,2.106,2.819,3.881a3.024,3.024,0,0,1-3.1,2.908,2.826,2.826,0,0,1-1.922-.757,4.645,4.645,0,0,0,1.3,2.685l-.371.36A3.784,3.784,0,0,0,53.747,30.057Z" transform="translate(-32.826 9.036)" fill="#fff"/>
    </g>
  </g>
</svg>
